# axes.obj
 
v  0.1 -0.1 -0.1
v  0.1 -0.1  0.1
v  0.1  0.1 -0.1
v  0.1  0.1  0.1
v  1.0 -0.1 -0.1
v  1.0 -0.1  0.1
v  1.0  0.1 -0.1
v  1.0  0.1  0.1

vt  1.0  0.0
vt  1.0  1.0
vt  0.0  1.0
vt  0.0  0.0
vt  1.0  0.0
vt  0.0  1.0
vt  1.0  0.0
vt  1.0  1.0
vt  0.0  1.0
vt  0.0  0.0
vt  1.0  0.0
vt  0.0  1.0
vt  1.0  0.0
vt  1.0  1.0
vt  0.0  1.0
vt  0.0  0.0
vt  1.0  0.0
vt  0.0  1.0
vt  1.0  0.0
vt  1.0  1.0
vt  0.0  1.0
vt  0.0  0.0
vt  1.0  0.0
vt  0.0  1.0
vt  1.0  0.0
vt  1.0  1.0
vt  0.0  1.0
vt  0.0  0.0
vt  1.0  0.0
vt  0.0  1.0
vt  1.0  0.0
vt  1.0  1.0
vt  0.0  1.0
vt  0.0  0.0
vt  1.0  0.0
vt  0.0  1.0

vn  0.0  0.0  1.0
vn  0.0  0.0 -1.0
vn  0.0  1.0  0.0
vn  0.0 -1.0  0.0
vn  1.0  0.0  0.0
vn -1.0  0.0  0.0
 
f  1/1/2  7/2/2  5/3/2 
f  1/4/2  3/5/2  7/6/2 
f  1/7/6  4/8/6  3/9/6 
f  1/10/6  2/11/6  4/12/6 
f  3/13/3  8/14/3  7/15/3 
f  3/16/3  4/17/3  8/18/3 
f  5/19/5  7/20/5  8/21/5 
f  5/22/5  8/23/5  6/24/5 
f  1/25/4  5/26/4  6/27/4 
f  1/28/4  6/29/4  2/30/4 
f  2/31/1  6/32/1  8/33/1 
f  2/34/1  8/35/1  4/36/1 
